<mxfile host="app.diagrams.net" agent="Mozilla/5.0 (Windows NT 10.0; Win64; x64) AppleWebKit/537.36 (KHTML, like Gecko) Chrome/140.0.0.0 Safari/537.36" version="28.2.1">
  <diagram id="nKcwNSxopM9L4TOepDwI" name="ページ1">
    <mxGraphModel dx="786" dy="498" grid="1" gridSize="10" guides="1" tooltips="1" connect="1" arrows="1" fold="1" page="1" pageScale="1" pageWidth="827" pageHeight="1169" math="0" shadow="0">
      <root>
        <mxCell id="0" />
        <mxCell id="1" parent="0" />
        <mxCell id="Kd51GDZghVT7ffv-WeH2-2" value="訪問者" style="shape=umlActor;verticalLabelPosition=bottom;verticalAlign=top;html=1;outlineConnect=0;" vertex="1" parent="1">
          <mxGeometry x="230" y="210" width="30" height="60" as="geometry" />
        </mxCell>
        <mxCell id="Kd51GDZghVT7ffv-WeH2-3" value="" style="shape=umlBoundary;whiteSpace=wrap;html=1;" vertex="1" parent="1">
          <mxGeometry x="365" y="158" width="70" height="60" as="geometry" />
        </mxCell>
        <mxCell id="Kd51GDZghVT7ffv-WeH2-4" value="システムを開く" style="text;html=1;align=center;verticalAlign=middle;resizable=0;points=[];autosize=1;strokeColor=none;fillColor=none;" vertex="1" parent="1">
          <mxGeometry x="345" y="218" width="110" height="30" as="geometry" />
        </mxCell>
        <mxCell id="Kd51GDZghVT7ffv-WeH2-6" value="" style="shape=umlBoundary;whiteSpace=wrap;html=1;" vertex="1" parent="1">
          <mxGeometry x="365" y="290" width="70" height="60" as="geometry" />
        </mxCell>
        <mxCell id="Kd51GDZghVT7ffv-WeH2-7" value="訪問者情報変更&lt;div&gt;画面を表示&lt;/div&gt;" style="text;html=1;align=center;verticalAlign=middle;resizable=0;points=[];autosize=1;strokeColor=none;fillColor=none;" vertex="1" parent="1">
          <mxGeometry x="500" y="220" width="110" height="40" as="geometry" />
        </mxCell>
        <mxCell id="Kd51GDZghVT7ffv-WeH2-8" value="" style="ellipse;shape=umlControl;whiteSpace=wrap;html=1;" vertex="1" parent="1">
          <mxGeometry x="530" y="150" width="60" height="70" as="geometry" />
        </mxCell>
        <mxCell id="Kd51GDZghVT7ffv-WeH2-9" value="" style="ellipse;shape=umlEntity;whiteSpace=wrap;html=1;" vertex="1" parent="1">
          <mxGeometry x="670" y="290" width="60" height="60" as="geometry" />
        </mxCell>
        <mxCell id="Kd51GDZghVT7ffv-WeH2-10" value="web訪問者" style="text;html=1;align=center;verticalAlign=middle;resizable=0;points=[];autosize=1;strokeColor=none;fillColor=none;" vertex="1" parent="1">
          <mxGeometry x="660" y="348" width="80" height="30" as="geometry" />
        </mxCell>
        <mxCell id="Kd51GDZghVT7ffv-WeH2-11" value="" style="endArrow=open;endFill=1;endSize=12;html=1;rounded=0;entryX=-0.005;entryY=0.506;entryDx=0;entryDy=0;entryPerimeter=0;" edge="1" parent="1" source="Kd51GDZghVT7ffv-WeH2-2" target="Kd51GDZghVT7ffv-WeH2-3">
          <mxGeometry width="160" relative="1" as="geometry">
            <mxPoint x="330" y="260" as="sourcePoint" />
            <mxPoint x="490" y="260" as="targetPoint" />
          </mxGeometry>
        </mxCell>
        <mxCell id="Kd51GDZghVT7ffv-WeH2-12" value="" style="endArrow=open;endFill=1;endSize=12;html=1;rounded=0;" edge="1" parent="1" source="Kd51GDZghVT7ffv-WeH2-3" target="Kd51GDZghVT7ffv-WeH2-8">
          <mxGeometry width="160" relative="1" as="geometry">
            <mxPoint x="440" y="185" as="sourcePoint" />
            <mxPoint x="490" y="260" as="targetPoint" />
          </mxGeometry>
        </mxCell>
        <mxCell id="Kd51GDZghVT7ffv-WeH2-13" value="" style="endArrow=block;startArrow=block;endFill=1;startFill=1;html=1;rounded=0;" edge="1" parent="1" source="Kd51GDZghVT7ffv-WeH2-8" target="Kd51GDZghVT7ffv-WeH2-9">
          <mxGeometry width="160" relative="1" as="geometry">
            <mxPoint x="330" y="260" as="sourcePoint" />
            <mxPoint x="490" y="260" as="targetPoint" />
          </mxGeometry>
        </mxCell>
        <mxCell id="Kd51GDZghVT7ffv-WeH2-14" value="" style="endArrow=block;startArrow=block;endFill=1;startFill=1;html=1;rounded=0;" edge="1" parent="1" source="Kd51GDZghVT7ffv-WeH2-16" target="Kd51GDZghVT7ffv-WeH2-9">
          <mxGeometry width="160" relative="1" as="geometry">
            <mxPoint x="580" y="350" as="sourcePoint" />
            <mxPoint x="490" y="260" as="targetPoint" />
          </mxGeometry>
        </mxCell>
        <mxCell id="Kd51GDZghVT7ffv-WeH2-16" value="" style="ellipse;shape=umlControl;whiteSpace=wrap;html=1;" vertex="1" parent="1">
          <mxGeometry x="530" y="285" width="60" height="70" as="geometry" />
        </mxCell>
        <mxCell id="Kd51GDZghVT7ffv-WeH2-17" value="訪問者情報変更" style="text;html=1;align=center;verticalAlign=middle;resizable=0;points=[];autosize=1;strokeColor=none;fillColor=none;" vertex="1" parent="1">
          <mxGeometry x="520" y="355" width="110" height="30" as="geometry" />
        </mxCell>
        <mxCell id="Kd51GDZghVT7ffv-WeH2-18" value="" style="endArrow=open;endFill=1;endSize=12;html=1;rounded=0;" edge="1" parent="1" source="Kd51GDZghVT7ffv-WeH2-16" target="Kd51GDZghVT7ffv-WeH2-6">
          <mxGeometry width="160" relative="1" as="geometry">
            <mxPoint x="330" y="260" as="sourcePoint" />
            <mxPoint x="490" y="260" as="targetPoint" />
          </mxGeometry>
        </mxCell>
        <mxCell id="Kd51GDZghVT7ffv-WeH2-19" value="訪問者情報登録画面" style="text;html=1;align=center;verticalAlign=middle;resizable=0;points=[];autosize=1;strokeColor=none;fillColor=none;" vertex="1" parent="1">
          <mxGeometry x="335" y="348" width="130" height="30" as="geometry" />
        </mxCell>
        <mxCell id="Kd51GDZghVT7ffv-WeH2-20" value="" style="endArrow=open;endFill=1;endSize=12;html=1;rounded=0;" edge="1" parent="1" source="Kd51GDZghVT7ffv-WeH2-2" target="Kd51GDZghVT7ffv-WeH2-6">
          <mxGeometry width="160" relative="1" as="geometry">
            <mxPoint x="330" y="260" as="sourcePoint" />
            <mxPoint x="490" y="260" as="targetPoint" />
          </mxGeometry>
        </mxCell>
        <mxCell id="Kd51GDZghVT7ffv-WeH2-21" value="情報変更を&lt;div&gt;クリック&lt;/div&gt;" style="text;html=1;align=center;verticalAlign=middle;resizable=0;points=[];autosize=1;strokeColor=none;fillColor=default;" vertex="1" parent="1">
          <mxGeometry x="255" y="180" width="80" height="40" as="geometry" />
        </mxCell>
        <mxCell id="Kd51GDZghVT7ffv-WeH2-22" value="変更したい&lt;div&gt;訪問者情報&lt;/div&gt;&lt;div&gt;を入力&lt;/div&gt;" style="text;html=1;align=center;verticalAlign=middle;resizable=0;points=[];autosize=1;strokeColor=none;fillColor=default;" vertex="1" parent="1">
          <mxGeometry x="265" y="270" width="80" height="60" as="geometry" />
        </mxCell>
        <mxCell id="Kd51GDZghVT7ffv-WeH2-23" value="" style="endArrow=open;endFill=1;endSize=12;html=1;rounded=0;" edge="1" parent="1" source="Kd51GDZghVT7ffv-WeH2-16" target="Kd51GDZghVT7ffv-WeH2-25">
          <mxGeometry width="160" relative="1" as="geometry">
            <mxPoint x="330" y="340" as="sourcePoint" />
            <mxPoint x="497.62732760817903" y="375.4423754593963" as="targetPoint" />
          </mxGeometry>
        </mxCell>
        <mxCell id="Kd51GDZghVT7ffv-WeH2-25" value="" style="ellipse;shape=umlControl;whiteSpace=wrap;html=1;" vertex="1" parent="1">
          <mxGeometry x="455" y="385" width="60" height="70" as="geometry" />
        </mxCell>
        <mxCell id="Kd51GDZghVT7ffv-WeH2-26" value="変更結果を表示" style="text;html=1;align=center;verticalAlign=middle;resizable=0;points=[];autosize=1;strokeColor=none;fillColor=none;" vertex="1" parent="1">
          <mxGeometry x="430" y="450" width="110" height="30" as="geometry" />
        </mxCell>
        <mxCell id="Kd51GDZghVT7ffv-WeH2-28" value="" style="shape=umlBoundary;whiteSpace=wrap;html=1;" vertex="1" parent="1">
          <mxGeometry x="330" y="390" width="70" height="60" as="geometry" />
        </mxCell>
        <mxCell id="Kd51GDZghVT7ffv-WeH2-29" value="変更結果を表示する" style="text;html=1;align=center;verticalAlign=middle;resizable=0;points=[];autosize=1;strokeColor=none;fillColor=none;" vertex="1" parent="1">
          <mxGeometry x="295" y="448" width="130" height="30" as="geometry" />
        </mxCell>
        <mxCell id="Kd51GDZghVT7ffv-WeH2-30" value="" style="endArrow=open;endFill=1;endSize=12;html=1;rounded=0;" edge="1" parent="1" source="Kd51GDZghVT7ffv-WeH2-25" target="Kd51GDZghVT7ffv-WeH2-28">
          <mxGeometry width="160" relative="1" as="geometry">
            <mxPoint x="400" y="380" as="sourcePoint" />
            <mxPoint x="490" y="400" as="targetPoint" />
          </mxGeometry>
        </mxCell>
      </root>
    </mxGraphModel>
  </diagram>
</mxfile>
